<svg xmlns="http://www.w3.org/2000/svg" viewBox="0 0 274.36 20.97"><defs><style>.cls-1{fill:#ffffff;}.cls-2{fill:#eeeeee;}</style></defs><title>资源 1</title><g id="图层_2" data-name="图层 2"><g id="图层_1-2" data-name="图层 1"><path class="cls-1" d="M2.27,21A2.27,2.27,0,0,1,0,18.7V3.17a2.27,2.27,0,0,1,4.53,0V18.7A2.27,2.27,0,0,1,2.27,21Z"/><path class="cls-1" d="M18.92,21a10,10,0,1,1,0-20.06A10,10,0,0,1,26,3.84a2.27,2.27,0,1,1-3.2,3.21,5.5,5.5,0,1,0,0,7.78l5.45-5.46,0,0,0,0,5.48-5.48a10,10,0,1,1,0,14.21L29.9,14.14,26,18A10,10,0,0,1,18.92,21Zm14.18-10L37,14.83A5.5,5.5,0,1,0,37,7Z"/><path class="cls-1" d="M63.35,21a10,10,0,1,1,10-10A10,10,0,0,1,63.35,21Zm0-15.53a5.5,5.5,0,1,0,5.51,5.5A5.5,5.5,0,0,0,63.35,5.44Z"/><polygon class="cls-2" points="33.1 10.94 29.9 14.14 31.06 15.31 33.1 10.94"/><path class="cls-1" d="M99.48,1.42v8c0,.11,0,.17-.15.17a4.67,4.67,0,0,1-2.47-.45c-.26-.15.15-.88-.26-.88H89.1a.16.16,0,0,0-.17.17c0,.15,0,.37.13.43L91,9.43c.32.1,0,.6-.62.66-.15,0-.32.43-.41.58a.17.17,0,0,0,.15.26h8.63c.13,0,2.13-.56,2.45-.62.11-.07.22.06.22.17l-.35,6.1c-.17,2.64-1.93,3.59-4.33,3.76-.11,0-.18-.05-.18-.15A2.37,2.37,0,0,0,95,17.91c-.11,0-1.12-.51-1.31-.39a17.16,17.16,0,0,1-6,2.67c-.17.06-.28-.22-.13-.32,3.54-2.07,5.93-4.34,6.89-8.38.07-.11,0-.19-.15-.19H93.16a.17.17,0,0,0-.17.1c-1.31,4.41-4.17,6.12-8.35,7.39-.18.07-.3-.17-.15-.32,2.57-1.83,4.91-3.8,5.77-7,.07-.11,0-.21-.15-.21s-.53-.09-.62.06a14.93,14.93,0,0,1-5.39,4.53c-.15.09-.32-.11-.22-.26a20.38,20.38,0,0,0,3.66-6s0-.09-.05-.15c-.17-.22-1.26.19-1.26-.22V1.35a.15.15,0,0,1,.06-.13,6.28,6.28,0,0,1,1.89.28c.17.07.75.33.79.33h7.78c.17,0,2.17-.48,2.51-.58C99.41,1.22,99.48,1.27,99.48,1.42ZM89.1,2.15a.16.16,0,0,0-.17.17V4.64a.16.16,0,0,0,.17.17h7.5a.15.15,0,0,0,.17-.17V2.32a.15.15,0,0,0-.17-.17Zm0,3a.16.16,0,0,0-.17.17V7.82A.16.16,0,0,0,89.1,8h7.5a.16.16,0,0,0,.17-.17V5.3a.16.16,0,0,0-.17-.17Zm7.54,12.44c1.1.06,1.65-.39,1.74-1.48l.32-4.62a.15.15,0,0,0-.17-.17H97.46c-.11,0-.15,0-.17.13a9.44,9.44,0,0,1-3.14,5.73.17.17,0,0,0,.11.3Z"/><path class="cls-1" d="M119,.32,121.71,3c.1.1.08.19,0,.28-.88.53-1.22-.11-1.46,0a37.7,37.7,0,0,1-4.46.65.16.16,0,0,0-.15.17v5.2a.16.16,0,0,0,.17.17h8.12c.25,0,.19.41-.05.41h-8.07a.15.15,0,0,0-.17.17v9.6a.13.13,0,0,1-.09.13,4.88,4.88,0,0,1-2.21.51c-.17,0-.58.11-.58-.15V10a.16.16,0,0,0-.17-.17h-7.8c-.23,0-.28-.41,0-.41h7.82a.16.16,0,0,0,.17-.17V4.34c0-.11-.07-.17-.19-.17-1.79.15-3.7.21-5.52.28a.18.18,0,1,1,0-.35c3.8-.92,8.4-2,11.77-3.8A.18.18,0,0,1,119,.32Z"/><path class="cls-1" d="M130.13,2.13h11.62c.1,0,2.21-.63,2.49-.73.1-.07.21,0,.21.17V17.25a2.44,2.44,0,0,1-.49,1.58c-.73,1-2.26,1.25-3.57,1.36-.1,0-.17,0-.19-.15a3.41,3.41,0,0,0-2.28-2.84c-.17-.06-.1-.32.09-.32l2.4.15c1,.09,1.38-.3,1.38-1.31l0-13a.17.17,0,0,0-.17-.18H130.3a.16.16,0,0,0-.17.18v13.1a.17.17,0,0,0,.32.06,35.55,35.55,0,0,0,1.87-6.74,16.78,16.78,0,0,0-1.51-2.79c-.08-.16.11-.37.26-.22.43.32.84.67,1.25,1a.18.18,0,0,0,.3-.11,29.93,29.93,0,0,0,.15-3.41c0-.15.06-.2.21-.17l2.56.66c.11,0,.13.11.11.22-.18.55-.67.6-.67.77a31,31,0,0,1-.62,4.06.2.2,0,0,0,0,.13,11.75,11.75,0,0,1,1.16,1.82c.77,1.63.58,2.77-1.07,3.44-.11,0-.17,0-.24-.11-.17-.66-.36-1.35-.6-2-.07-.15-.26-.17-.32,0a18.41,18.41,0,0,1-3.16,4.77.79.79,0,0,0,0,.13v2.42s0,.09-.09.15a4.83,4.83,0,0,1-2.45.5.16.16,0,0,1-.17-.17V1.37a.17.17,0,0,1,.19-.17,5.3,5.3,0,0,1,2.52.9ZM139.62,15a24.08,24.08,0,0,0-.86-2.69c-.06-.15-.24-.17-.3,0a15.25,15.25,0,0,1-3.89,4.88.18.18,0,0,1-.25-.24,25.15,25.15,0,0,0,2.14-4.68,21.61,21.61,0,0,0,.84-3.27c-.41-.79-.88-1.65-1.37-2.44a.17.17,0,0,1,.23-.24,14.69,14.69,0,0,1,1.2,1,.17.17,0,0,0,.28-.11,23.9,23.9,0,0,0,.2-3.48c0-.15.06-.19.21-.17l2.69.62a.17.17,0,0,1,.13.22c-.18.53-.69.53-.69.71a38.08,38.08,0,0,1-.69,4.23s0,.08,0,.15c.78.94,2.09,2.75,1.91,3.88s-.73,1.44-1.59,1.79A.17.17,0,0,1,139.62,15Z"/><path class="cls-1" d="M148.62,19.61l-1-3a.16.16,0,0,1,.15-.23,56.91,56.91,0,0,0,7.07-1.06c.17-.06.27.2.12.31A43.25,43.25,0,0,1,149.29,19c-.15.07-.15.46-.41.69A.16.16,0,0,1,148.62,19.61Zm-.26-10.18-.75-2.3s0-.09,0-.15.43,0,.52-.17A21.27,21.27,0,0,0,150.49.49c0-.15.11-.19.24-.13l2.81,1.29c.11.07.15.13.08.24-.34.62-.81.34-.94.54a31.19,31.19,0,0,1-3.42,4.14.17.17,0,0,0,.13.28l2.3-.11a.15.15,0,0,0,.15-.1,17.11,17.11,0,0,0,.78-2.56c0-.15.1-.19.23-.13l2.82,1.23a.18.18,0,0,1,.06.25c-.34.52-.77.35-.88.52a40.27,40.27,0,0,1-4.53,5.71.18.18,0,0,0,.15.3c1.31-.11,2.64-.3,4-.45a.17.17,0,0,1,.11.32,46.73,46.73,0,0,1-4.7,2.34.13.13,0,0,0-.09.13c-.06.37-.36.67-.51.39l-.95-2.36a.24.24,0,0,1,0-.17c.15-.22.65.06.82-.18a33.2,33.2,0,0,0,2.1-4,.18.18,0,0,0-.23-.24c-.67.39-1.36.76-2.09,1.12-.15.07-.1.45-.3.6S148.43,9.53,148.36,9.43Zm16.78,3.28v7.16c0,.1,0,.17-.15.17a4.18,4.18,0,0,1-2.2-.45c-.27-.18.16-1.06-.25-1.06h-3.8a.17.17,0,0,0-.18.18v.85a.16.16,0,0,1-.08.15,4.66,4.66,0,0,1-2.24.41.16.16,0,0,1-.17-.17V13.21c0-.15-.13-.24-.23-.17-.35.15-.71.25-1.08.4a.16.16,0,0,1-.15-.28,29.22,29.22,0,0,0,4.86-4.76.22.22,0,0,0,0-.22,12.73,12.73,0,0,1-1.1-2,.17.17,0,0,0-.3,0,17.27,17.27,0,0,1-2.62,3.2.18.18,0,0,1-.28-.19A32.58,32.58,0,0,0,157.51.52c0-.16.11-.2.22-.13l2.94.9c.34.11-.09.62-.56.69-.17.06-.24.45-.34.7s-.33.69,0,.69h2.42c.2,0,.26-.39.41-.71s.17-.81.45-.64l2.47,1.63c.11.07.13.13.07.22-.33.62-.88.7-1,.85a26.57,26.57,0,0,1-2.17,3.44c-.08.11-.06.19.07.26a14.3,14.3,0,0,0,4.61,1.09.17.17,0,0,1,.13.28,8.6,8.6,0,0,0-1.44,2.39c0,.1-.08.13-.19.1a10.55,10.55,0,0,1-4.57-2.36.18.18,0,0,0-.24,0,14.66,14.66,0,0,1-3.46,2.41c-.15.06-.13.25,0,.32a5.59,5.59,0,0,1,1.16.45c.09.09,3.72,0,4.15,0,.15,0,1.93-.51,2.23-.58S165.14,12.56,165.14,12.71Zm-5.67-9c-.09,0-.13,0-.15.08a14.3,14.3,0,0,1-.82,1.55.2.2,0,0,0,0,.19,11.65,11.65,0,0,0,1.68,1.55.22.22,0,0,0,.25,0A22.2,22.2,0,0,0,162.06,4c.07-.1,0-.23-.15-.23Zm-.73,9.73a.16.16,0,0,0-.18.17V18a.17.17,0,0,0,.18.17h3.8a.16.16,0,0,0,.17-.17V13.64a.16.16,0,0,0-.17-.17Z"/><path class="cls-1" d="M169.84,4.79c-.23,0-.26-.34,0-.34h7.69c.15,0,.24-.13.17-.24L176.26.54c-.06-.15,0-.26.17-.24a7.45,7.45,0,0,1,2.47.54c1.72.75,1.46,2.21.37,3.3a.19.19,0,0,0,.13.31h8.44c.23,0,.21.34,0,.34H185.2a.16.16,0,0,0-.17.15,19.53,19.53,0,0,1-4.21,8.93.17.17,0,0,0,0,.28,22.11,22.11,0,0,0,7.49,2.39.15.15,0,0,1,.13.25A22.75,22.75,0,0,0,187.09,19c-.8,1.31-.28,1.23-1.42.93a17.37,17.37,0,0,1-7-3.72.16.16,0,0,0-.22,0,22.41,22.41,0,0,1-8.67,4,.17.17,0,0,1-.15-.3,40.79,40.79,0,0,0,7.13-5.59.14.14,0,0,0,0-.21A18.75,18.75,0,0,1,173.32,5a.15.15,0,0,0-.17-.17Zm8.66,7.41A17.8,17.8,0,0,0,181.61,5c0-.15,0-.21-.17-.21h-7.63a.17.17,0,0,0-.15.24,16.86,16.86,0,0,0,4.58,7.21C178.32,12.33,178.41,12.31,178.5,12.2Z"/><path class="cls-1" d="M195.27.28l3.37,1.35c.18.07.09.28,0,.39-.36.36-.73.08-.84.3A20.65,20.65,0,0,1,195.66,6a.16.16,0,0,0,.11.26l1.07.26c.24.06.13.28,0,.43-.32.38-.77.27-.77.49l0,12c0,.07,0,.11-.07.13a4,4,0,0,1-2.44.8.16.16,0,0,1-.17-.18V9.32a.18.18,0,0,0-.31-.13A24.36,24.36,0,0,1,191,11.3c-.15.15-.36-.05-.26-.22A46.61,46.61,0,0,0,195,.39C195.06.26,195.14.21,195.27.28ZM207,3.74,209.73,6c.1.07.1.15,0,.24-.52.51-1,.19-1.18.3a30.31,30.31,0,0,1-5.87,4.38.2.2,0,0,0-.06.15V16c0,.75.38.92,1.14.92h2.53c1.27,0,2-3.16,2.28-4.14a.17.17,0,0,1,.34,0c.09,4.38,1.37,4.06,1.37,4.4a2.24,2.24,0,0,1-2.4,2.36l-5.35,0c-1.82,0-2.66-.66-2.66-2.57V12.76a.19.19,0,0,0-.26-.18c-.66.35-1.33.63-2,.95-.17.09-.32-.13-.17-.28l2.36-2c.05,0,.07-.06.07-.13V.73c0-.15.06-.19.19-.17l3.29.58c.15,0,.19.11.13.23-.24.52-.84.5-.84.73l0,6.23a.17.17,0,0,0,.28.13,26.51,26.51,0,0,0,3.88-4.68C206.87,3.69,207,3.67,207,3.74Z"/><path class="cls-1" d="M213.66,3a.18.18,0,1,1,0-.35h16.41a.18.18,0,0,1,0,.35h-6.58a.16.16,0,0,0-.17.17v15.4a.16.16,0,0,0,.17.17h8c.24,0,.22.36,0,.36H212.24c-.24,0-.28-.36,0-.36h8a.16.16,0,0,0,.17-.17V3.18a.15.15,0,0,0-.17-.17Z"/><path class="cls-1" d="M237.2.69l3.43.94c.11,0,.16.09.13.17-.1.88-1,.39-1,.71a14.48,14.48,0,0,1-1.82,3.87c-.07.11,0,.23.13.26l1,.13c.11,0,.15,0,.15.15.07.81-.75.55-.75.88l0,11.94a.22.22,0,0,1-.06.13,3.41,3.41,0,0,1-2.28.77.16.16,0,0,1-.17-.17V9.66a.17.17,0,0,0-.32-.1c-.63.75-1.29,1.48-2,2.23a.17.17,0,0,1-.28-.19A39.27,39.27,0,0,0,237,.84C237,.71,237.05.67,237.2.69ZM243.08.6l3.31.84c.28.11.11.73-.26.79-.81.18-.15-.6-1.74,2.3a.17.17,0,0,0,.15.26h8.25c.24,0,.21.36,0,.36h-5.84a.16.16,0,0,0-.17.18v4a.15.15,0,0,0,.17.17H252c.25,0,.21.37,0,.37h-5.07a.15.15,0,0,0-.17.17v4.12a.15.15,0,0,0,.17.17h5.88c.24,0,.19.18.11.33h-6a.15.15,0,0,0-.17.17v5c0,.45-1.94.69-2.28.69-.15,0-.39.06-.39-.17V5.15H244a23.25,23.25,0,0,1-4.26,5.65.17.17,0,0,1-.28-.19c1.1-2.49,3.05-7.28,3.4-9.86A.16.16,0,0,1,243.08.6Z"/><path class="cls-1" d="M255,5.11a9.29,9.29,0,0,0,2.52-3.33c.06-.15.25-.13.32,0a10.35,10.35,0,0,1,.34,1,.14.14,0,0,0,.15.13h5.16c.15,0,.23-.08.17-.23-.26-.69-.52-1.46-.8-2.13,0-.15-.34-.6,0-.6a5,5,0,0,1,2.86.64,1.45,1.45,0,0,1,0,2,.17.17,0,0,0,.13.28H271a.15.15,0,0,0,.15-.1l.41-1.21c.07-.15.19-.17.28-.08l2.47,2.3a.16.16,0,0,1,0,.21c-.28.52-.79.06-1,.17l-2.86,1.46a.17.17,0,0,1-.24-.21l.65-2c.06-.11,0-.21-.17-.21H258.48c-.15,0-.19.06-.17.19.17,1.33,0,2.88-1.42,3.46-1.09.4-1.69-.73-1.93-1.66A.15.15,0,0,1,255,5.11Zm2.26,10.35c-.24,0-.26-.36,0-.36H263a.17.17,0,0,0,.18-.17V12.07c0-.15.06-.19.21-.17l3.16.56c.1,0,.15.1.13.23-.18.5-.78.47-.78.71v1.53a.16.16,0,0,0,.17.17h6.64c.24,0,.22.36,0,.36h-6.62a.16.16,0,0,0-.17.17v3.18a.16.16,0,0,0,.17.17h8.12c.24,0,.22.39,0,.39H255.52c-.24,0-.26-.39,0-.39H263a.16.16,0,0,0,.18-.17V15.63a.17.17,0,0,0-.18-.17Zm1.18-8.93c-.24,0-.26-.37,0-.37H271.5c.23,0,.21.37,0,.37h-6s-.05,0-.11,0a26.45,26.45,0,0,1-4.9,3c-.17.06-.11.32.09.32l7.28-.3a.17.17,0,0,0,.13-.28,19.15,19.15,0,0,0-1.38-1.46c-.15-.11,0-.32.15-.3,1.63.3,4.79,1.14,5.37,2.71a1.76,1.76,0,0,1-.21,1.65c-.35.45-1.31,1-1.49.69-.49-.75-1.07-1.55-1.65-2.3a.14.14,0,0,0-.17-.06c-3.18.79-6.23,1.43-9.47,2a.16.16,0,0,0-.13.17c0,.58-.41.93-.56.6l-1-2.72a.16.16,0,0,1,.15-.24l1.37-.07a.18.18,0,0,0,.13,0,10.21,10.21,0,0,0,2.32-3.13.17.17,0,0,0-.17-.26Z"/></g></g></svg>