<svg xmlns="http://www.w3.org/2000/svg" viewBox="0 0 300.32 23.056">
  <defs>
    <style>
      .cls-1 {
        fill: #fff;
      }
    </style>
  </defs>
  <g id="易千" transform="translate(0 0.065)">
    <g id="图层_1" data-name="图层 1" transform="translate(0 -0.065)">
      <path id="路径_1" data-name="路径 1" class="cls-1" d="M2.485,22.886A2.485,2.485,0,0,1,0,20.368v-17a2.485,2.485,0,0,1,4.958,0v17a2.485,2.485,0,0,1-2.474,2.517Z" transform="translate(0 0.17)"/>
      <path id="路径_2" data-name="路径 2" class="cls-1" d="M19.868,22.9A10.978,10.978,0,1,1,27.617,4.114a2.485,2.485,0,1,1-3.5,3.513,6.02,6.02,0,1,0,0,8.515l5.965-5.976h0l6-6a10.945,10.945,0,1,1,0,15.553l-4.192-4.334-4.269,4.225A10.945,10.945,0,0,1,19.868,22.9Zm15.52-10.945,4.269,4.192a6.02,6.02,0,1,0,0-8.57Z" transform="translate(0.841 0.16)"/>
      <path id="路径_3" data-name="路径 3" class="cls-1" d="M64.3,22.891A10.945,10.945,0,1,1,75.241,11.945,10.945,10.945,0,0,1,64.3,22.891Zm0-17a2.5,2.5,0,1,0,0-.033Z" transform="translate(5.043 0.166)"/>
      <path id="路径_4" data-name="路径 4" class="cls-1" d="M33.4,10.94l-3.5,3.5,1.27,1.281Z" transform="translate(2.827 1.105)"/>
      <path id="路径_5" data-name="路径 5" class="cls-1" d="M100.957,1.439V10.2c0,.12,0,.186-.164.186a5.111,5.111,0,0,1-2.7-.493c-.285-.164.164-.963-.285-.963H89.6a.175.175,0,0,0-.186.186c0,.164,0,.4.142.471l2.123.624c.35.109,0,.657-.679.722-.164,0-.35.471-.449.635a.186.186,0,0,0,.164.285h9.446c.142,0,2.331-.613,2.682-.679.12-.077.241.066.241.186l-.383,6.677c-.186,2.89-2.112,3.929-4.739,4.115-.12,0-.2-.055-.2-.164a2.594,2.594,0,0,0-1.707-2.5c-.12,0-1.226-.558-1.434-.427a18.782,18.782,0,0,1-6.567,2.922c-.186.066-.306-.241-.142-.35,3.875-2.266,6.491-4.75,7.541-9.172.077-.12,0-.208-.164-.208H94.04a.186.186,0,0,0-.186.109c-1.434,4.827-4.564,6.7-9.139,8.089-.2.077-.328-.186-.164-.35,2.813-2,5.374-4.159,6.315-7.662.077-.12,0-.23-.164-.23s-.58-.1-.679.066a16.341,16.341,0,0,1-5.9,4.958c-.164.1-.35-.12-.241-.285a22.306,22.306,0,0,0,4.006-6.567.29.29,0,0,0-.055-.164c-.186-.241-1.379.208-1.379-.241V1.362a.164.164,0,0,1,.066-.142,6.874,6.874,0,0,1,2.069.306c.186.077.821.361.865.361h8.515c.186,0,2.375-.525,2.747-.635C100.881,1.22,100.957,1.275,100.957,1.439Zm-11.361.8a.175.175,0,0,0-.186.186V4.963a.175.175,0,0,0,.186.186h8.209a.164.164,0,0,0,.186-.186V2.424a.164.164,0,0,0-.186-.186Zm0,3.284a.175.175,0,0,0-.186.186V8.444a.175.175,0,0,0,.186.2h8.209a.175.175,0,0,0,.186-.186V5.686a.175.175,0,0,0-.186-.186Zm8.253,13.616c1.2.066,1.806-.427,1.9-1.62l.35-5.057a.164.164,0,0,0-.186-.186H98.747c-.12,0-.164,0-.186.142a10.332,10.332,0,0,1-3.437,6.272.186.186,0,0,0,.12.328Z" transform="translate(7.926 0.186)"/>
      <path id="路径_6" data-name="路径 6" class="cls-1" d="M120.361.323l2.966,2.933a.2.2,0,0,1,0,.306c-.963.58-1.335-.12-1.6,0a41.263,41.263,0,0,1-4.882.711.175.175,0,0,0-.164.186v5.692a.175.175,0,0,0,.186.186h8.888c.274,0,.208.449-.055.449H116.87a.164.164,0,0,0-.186.186V21.48a.142.142,0,0,1-.1.142,5.341,5.341,0,0,1-2.419.558c-.186,0-.635.12-.635-.164v-11.1a.175.175,0,0,0-.186-.186h-8.537c-.252,0-.306-.449,0-.449h8.559a.175.175,0,0,0,.186-.186V4.723c0-.12-.077-.186-.208-.186-1.959.164-4.05.23-6.042.306a.2.2,0,1,1,0-.383C111.463,3.453,116.5,2.271,120.186.3a.2.2,0,0,1,.175.022Z" transform="translate(9.888 0.098)"/>
      <path id="路径_7" data-name="路径 7" class="cls-1" d="M130.386,2.218H143.1c.109,0,2.419-.69,2.725-.8.109-.077.23,0,.23.186V18.767a2.671,2.671,0,0,1-.536,1.729c-.8,1.095-2.474,1.368-3.907,1.489-.109,0-.186,0-.208-.164a3.732,3.732,0,0,0-2.5-3.108c-.186-.066-.109-.35.1-.35l2.627.164c1.095.1,1.51-.328,1.51-1.434V2.864a.186.186,0,0,0-.186-.2h-12.39a.175.175,0,0,0-.186.2V17.2a.186.186,0,0,0,.35.066,38.911,38.911,0,0,0,2.047-7.377,18.368,18.368,0,0,0-1.653-3.054c-.088-.175.12-.4.285-.241.471.35.919.733,1.368,1.095a.2.2,0,0,0,.328-.12,32.763,32.763,0,0,0,.164-3.732c0-.164.066-.219.23-.186l2.8.722c.12,0,.142.12.12.241-.2.6-.733.657-.733.843a33.934,33.934,0,0,1-.679,4.444.219.219,0,0,0,0,.142,12.861,12.861,0,0,1,1.27,1.992c.843,1.784.635,3.032-1.171,3.765-.12,0-.186,0-.263-.12a22.761,22.761,0,0,0-.657-2.189c-.077-.164-.285-.186-.35,0a20.15,20.15,0,0,1-3.459,5.221.865.865,0,0,0,0,.142V21.5a.212.212,0,0,1-.1.164,5.286,5.286,0,0,1-2.682.547.175.175,0,0,1-.186-.186V1.386a.186.186,0,0,1,.208-.186,5.8,5.8,0,0,1,2.758.985ZM140.773,16.3a26.356,26.356,0,0,0-.941-2.944.168.168,0,0,0-.328,0,16.692,16.692,0,0,1-4.258,5.341.2.2,0,0,1-.274-.263,27.528,27.528,0,0,0,2.342-5.122,23.653,23.653,0,0,0,.919-3.579c-.449-.865-.963-1.806-1.5-2.671a.186.186,0,0,1,.252-.263A16.082,16.082,0,0,1,138.3,7.9a.186.186,0,0,0,.306-.12,26.161,26.161,0,0,0,.219-3.809c0-.164.066-.208.23-.186L142,4.462a.186.186,0,0,1,.142.241c-.2.58-.755.58-.755.777a41.678,41.678,0,0,1-.755,4.63v.164c.854,1.029,2.288,3.01,2.091,4.247a2.245,2.245,0,0,1-1.74,1.959.186.186,0,0,1-.208-.175Z" transform="translate(12.045 0.184)"/>
      <path id="路径_8" data-name="路径 8" class="cls-1" d="M148.716,21.432l-1.095-3.284a.175.175,0,0,1,.164-.252,62.291,62.291,0,0,0,7.738-1.16c.186-.066.3.219.131.339a47.341,47.341,0,0,1-6.206,3.689c-.164.077-.164.5-.449.755a.175.175,0,0,1-.285-.088Zm-.285-11.142-.821-2.517V7.608c0-.066.471,0,.569-.186A23.281,23.281,0,0,0,150.763.5c0-.164.12-.208.263-.142L154.1,1.774c.12.077.164.142.088.263-.372.679-.887.372-1.029.591a34.138,34.138,0,0,1-3.743,4.531.186.186,0,0,0,.142.306l2.517-.12a.164.164,0,0,0,.164-.109,18.729,18.729,0,0,0,.854-2.8c0-.164.109-.208.252-.142l3.087,1.346a.2.2,0,0,1,.066.274c-.372.569-.843.383-.963.569a44.079,44.079,0,0,1-4.958,6.25.2.2,0,0,0,.164.328c1.434-.12,2.89-.328,4.378-.493a.186.186,0,0,1,.12.35,51.143,51.143,0,0,1-5.144,2.561.142.142,0,0,0-.1.142c-.066.4-.394.733-.558.427l-1.04-2.583a.263.263,0,0,1,0-.186c.164-.241.711.066.9-.2a36.336,36.336,0,0,0,2.3-4.378.2.2,0,0,0-.252-.263c-.733.427-1.489.832-2.288,1.226-.164.077-.109.493-.328.657S148.508,10.4,148.431,10.29ZM166.8,13.88v7.837c0,.109,0,.186-.164.186a4.575,4.575,0,0,1-2.408-.493c-.3-.2.175-1.16-.274-1.16h-4.159a.186.186,0,0,0-.2.2v.93a.175.175,0,0,1-.088.164,5.1,5.1,0,0,1-2.452.449.175.175,0,0,1-.186-.186V14.427c0-.164-.142-.263-.252-.186-.383.164-.777.274-1.182.438a.175.175,0,0,1-.164-.306,31.983,31.983,0,0,0,5.319-5.21.241.241,0,0,0,0-.241,13.933,13.933,0,0,1-1.2-2.189.186.186,0,0,0-.328,0,18.9,18.9,0,0,1-2.868,3.5.2.2,0,0,1-.306-.208,35.66,35.66,0,0,0,2.561-9.49c0-.175.12-.219.241-.142l3.218.985c.372.12-.1.679-.613.755-.186.066-.263.493-.372.766s-.361.755,0,.755h2.649c.219,0,.285-.427.449-.777s.186-.887.493-.7l2.7,1.784c.12.077.142.142.077.241-.361.679-.963.766-1.095.93A29.082,29.082,0,0,1,163.821,8.9c-.088.12-.066.208.077.285a15.652,15.652,0,0,0,5.046,1.193.186.186,0,0,1,.142.306,9.414,9.414,0,0,0-1.576,2.616c0,.109-.088.142-.208.109a11.547,11.547,0,0,1-5-2.583.2.2,0,0,0-.263,0,16.046,16.046,0,0,1-3.787,2.638.191.191,0,0,0,0,.35,6.118,6.118,0,0,1,1.27.493c.1.1,4.072,0,4.542,0,.164,0,2.112-.558,2.441-.635S166.8,13.716,166.8,13.88Zm-6.206-9.851c-.1,0-.142,0-.164.088a15.657,15.657,0,0,1-.9,1.7.219.219,0,0,0,0,.208,12.75,12.75,0,0,0,1.839,1.7.241.241,0,0,0,.274,0,24.3,24.3,0,0,0,1.784-3.371c.077-.109,0-.252-.164-.252Zm-.8,10.65a.175.175,0,0,0-.2.186v4.8a.186.186,0,0,0,.2.186h4.159a.175.175,0,0,0,.186-.186V14.9a.175.175,0,0,0-.186-.186Z" transform="translate(13.953 0.103)"/>
      <path id="路径_9" data-name="路径 9" class="cls-1" d="M169.866,5.215a.187.187,0,1,1,0-.372h8.417c.164,0,.263-.142.186-.263L176.893.563c-.066-.164,0-.285.186-.263a8.154,8.154,0,0,1,2.7.591c1.883.821,1.6,2.419.4,3.612a.208.208,0,0,0,.142.339h9.238a.186.186,0,0,1,0,.372h-2.89a.175.175,0,0,0-.186.164,21.377,21.377,0,0,1-4.608,9.774.186.186,0,0,0,0,.306,24.2,24.2,0,0,0,8.2,2.616.164.164,0,0,1,.142.274,24.9,24.9,0,0,0-1.478,2.419c-.876,1.434-.306,1.346-1.554,1.018a19.012,19.012,0,0,1-7.662-4.072.175.175,0,0,0-.241,0,24.528,24.528,0,0,1-9.49,4.378.186.186,0,0,1-.164-.328,44.647,44.647,0,0,0,7.8-6.118.153.153,0,0,0,0-.23,20.523,20.523,0,0,1-3.765-9.971.164.164,0,0,0-.186-.186Zm9.479,8.11a19.482,19.482,0,0,0,3.4-7.881c0-.164,0-.23-.186-.23h-8.351a.186.186,0,0,0-.164.263,18.455,18.455,0,0,0,5.013,7.892C179.148,13.467,179.247,13.446,179.345,13.325Z" transform="translate(16.029 0.099)"/>
      <path id="路径_10" data-name="路径 10" class="cls-1" d="M195.7.283l3.689,1.478c.2.077.1.306,0,.427-.394.394-.8.088-.919.328a22.6,22.6,0,0,1-2.342,4.028.175.175,0,0,0,.12.285l1.171.285c.263.066.142.306,0,.471-.35.416-.843.3-.843.536V21.254c0,.077,0,.12-.077.142a4.378,4.378,0,0,1-2.671.876.175.175,0,0,1-.186-.2v-11.9a.2.2,0,0,0-.339-.142,26.663,26.663,0,0,1-2.277,2.309c-.164.164-.394-.055-.285-.241A51.016,51.016,0,0,0,195.405.4C195.471.261,195.558.206,195.7.283ZM208.54,4.07l2.988,2.474q.164.115,0,.263c-.569.558-1.095.208-1.292.328a33.176,33.176,0,0,1-6.425,4.794.219.219,0,0,0-.066.164v5.4c0,.821.416,1.007,1.248,1.007h2.769c1.39,0,2.189-3.459,2.5-4.531a.186.186,0,1,1,.372,0c.1,4.794,1.5,4.444,1.5,4.816a2.452,2.452,0,0,1-2.627,2.583h-5.856c-1.992,0-2.911-.722-2.911-2.813V13.943a.208.208,0,0,0-.285-.2c-.722.383-1.456.69-2.189,1.04-.186.1-.35-.142-.186-.306l2.583-2.189c.055,0,.077-.066.077-.142V.776c0-.164.066-.208.208-.186l3.6.635c.164,0,.208.12.142.252-.263.569-.919.547-.919.8V9.094a.186.186,0,0,0,.306.142,29.016,29.016,0,0,0,4.247-5.122C208.4,4.015,208.54,3.993,208.54,4.07Z" transform="translate(18.028 0.095)"/>
      <path id="路径_11" data-name="路径 11" class="cls-1" d="M213.813,3.034a.2.2,0,1,1,0-.383h17.961a.2.2,0,0,1,0,.383h-7.2a.175.175,0,0,0-.186.186V20.075a.175.175,0,0,0,.186.186h8.756a.2.2,0,0,1,0,.394h-21.07a.2.2,0,1,1,0-.394h8.756a.175.175,0,0,0,.186-.186V3.231a.164.164,0,0,0-.186-.186Z" transform="translate(20.045 0.321)"/>
      <path id="路径_12" data-name="路径 12" class="cls-1" d="M237.565.7l3.754,1.029a.137.137,0,0,1,.142.186c-.109.963-1.095.427-1.095.777a15.849,15.849,0,0,1-1.992,4.236.188.188,0,0,0,.142.285l1.095.142c.12,0,.164,0,.164.164.077.887-.821.6-.821.963V21.55a.241.241,0,0,1-.066.142,3.732,3.732,0,0,1-2.5.843.175.175,0,0,1-.186-.186V10.518a.186.186,0,0,0-.35-.109c-.69.821-1.412,1.62-2.189,2.441a.186.186,0,0,1-.306-.208A42.981,42.981,0,0,0,237.346.864C237.346.722,237.4.678,237.565.7ZM244,.6l3.623.919c.306.12.12.8-.285.865-.887.2-.164-.657-1.9,2.517a.186.186,0,0,0,.164.285h9.03c.263,0,.23.394,0,.394h-6.392a.175.175,0,0,0-.186.2v4.378a.164.164,0,0,0,.186.186h5.527c.274,0,.23.4,0,.4h-5.549a.164.164,0,0,0-.186.186v4.509a.164.164,0,0,0,.186.186h6.436c.263,0,.208.2.12.361H248.2a.164.164,0,0,0-.186.186v5.473c0,.493-2.123.755-2.5.755-.164,0-.427.066-.427-.186V5.581h-.088a25.448,25.448,0,0,1-4.663,6.184.186.186,0,0,1-.307-.208c1.2-2.725,3.338-7.968,3.721-10.792A.175.175,0,0,1,244,.6Z" transform="translate(22.058 0.127)"/>
      <path id="路径_13" data-name="路径 13" class="cls-1" d="M255,5.6a10.168,10.168,0,0,0,2.758-3.645.191.191,0,0,1,.35,0,11.335,11.335,0,0,1,.372,1.095.153.153,0,0,0,.164.142H264.3c.164,0,.252-.088.186-.252-.285-.755-.569-1.6-.876-2.331,0-.164-.372-.657,0-.657a5.473,5.473,0,0,1,3.13.7,1.587,1.587,0,0,1,0,2.189.186.186,0,0,0,.142.306h5.637a.164.164,0,0,0,.164-.109l.449-1.324c.077-.164.208-.186.306-.088l2.7,2.517a.175.175,0,0,1,0,.23c-.306.569-.865.066-1.095.186l-3.13,1.6a.186.186,0,0,1-.263-.23l.711-2.189c.066-.12,0-.23-.186-.23H258.813c-.164,0-.208.066-.186.208.186,1.456,0,3.152-1.554,3.787-1.193.438-1.85-.8-2.112-1.817A.165.165,0,0,1,255,5.6Zm2.474,11.328a.2.2,0,1,1,0-.394h6.283a.186.186,0,0,0,.2-.186v-3.13c0-.164.066-.208.23-.186l3.459.613c.109,0,.164.109.142.252-.2.547-.854.514-.854.777v1.675a.175.175,0,0,0,.186.186h7.268a.2.2,0,0,1,0,.394h-7.246a.175.175,0,0,0-.186.186v3.481a.175.175,0,0,0,.186.186h8.888c.263,0,.241.427,0,.427H255.573a.214.214,0,0,1,0-.427h8.187a.175.175,0,0,0,.2-.186V17.114a.186.186,0,0,0-.2-.186Zm1.292-9.774a.2.2,0,1,1,0-.4h14.295c.252,0,.23.4,0,.4h-6.688a28.952,28.952,0,0,1-5.363,3.284c-.186.066-.12.35.1.35l7.968-.328a.186.186,0,0,0,.142-.306,20.956,20.956,0,0,0-1.51-1.6c-.164-.12,0-.35.164-.328,1.784.328,5.243,1.248,5.878,2.966a1.926,1.926,0,0,1-.23,1.806c-.383.493-1.434,1.095-1.631.755-.536-.821-1.171-1.7-1.806-2.517a.153.153,0,0,0-.186-.066c-3.481.865-6.819,1.565-10.365,2.189a.175.175,0,0,0-.142.186c0,.635-.449,1.018-.613.657l-1.095-2.977a.175.175,0,0,1,.164-.263l1.5-.077a.2.2,0,0,0,.142,0,11.176,11.176,0,0,0,2.539-3.426.186.186,0,0,0-.186-.285Z" transform="translate(24.101 0.065)"/>
    </g>
  </g>
</svg>
